<svg xmlns="http://www.w3.org/2000/svg" xmlns:xlink="http://www.w3.org/1999/xlink" width="500" zoomAndPan="magnify" viewBox="0 0 375 374.999991" height="500" preserveAspectRatio="xMidYMid meet" version="1.0"><path fill="#ffffff" d="M 370.8125 288.078125 C 357.449219 291.480469 349.183594 288.226562 341.769531 277.089844 C 325.125 252.148438 306.746094 228.351562 289.015625 204.113281 C 286.730469 200.980469 284.355469 197.902344 281.398438 194.003906 C 260.414062 222.316406 239.460938 249.277344 219.792969 277.324219 C 212.761719 287.347656 205.375 291.714844 192.246094 288.167969 L 271.140625 182.28125 L 197.695312 86.652344 C 210.328125 84.191406 219.0625 85.449219 226.796875 96.761719 C 243.882812 121.734375 262.730469 145.5 281.515625 170.644531 C 300.417969 145.589844 319.027344 121.792969 336.613281 97.058594 C 343.675781 87.035156 351.265625 83.222656 363.953125 86.917969 C 354.34375 99.664062 344.933594 112.207031 335.46875 124.664062 C 322.691406 141.457031 310.148438 158.453125 296.902344 174.894531 C 292.183594 180.757812 292.945312 184.566406 297.164062 190.105469 C 321.664062 222.316406 345.871094 254.84375 370.8125 288.078125 Z M 370.8125 288.078125 " fill-opacity="1" fill-rule="nonzero"/><path fill="#ffffff" d="M 3.480469 180.523438 C 5.589844 169.941406 6.996094 159.15625 9.925781 148.785156 C 27.511719 85.980469 99.605469 59.867188 149.136719 98.785156 C 178.148438 121.617188 185.359375 153.796875 183.921875 190.078125 L 20.390625 190.078125 C 17.929688 255.167969 64.789062 294.46875 124.515625 274.421875 C 145.472656 267.386719 157.808594 250.976562 163.992188 230.460938 C 167.128906 220.175781 172.316406 218.5625 181.988281 221.492188 C 177.035156 247.167969 165.8125 268.621094 142.363281 282.042969 C 107.195312 302.148438 56.992188 295.640625 30.589844 267.710938 C 14.996094 251.300781 8.375 230.871094 5.441406 208.804688 C 5.003906 205.289062 4.09375 201.828125 3.390625 198.339844 C 3.449219 192.402344 3.480469 186.460938 3.480469 180.523438 Z M 20.683594 176.15625 L 168.476562 176.15625 C 167.511719 129.089844 138.203125 95.648438 98.140625 95.355469 C 54.179688 95.003906 22.585938 127.652344 20.683594 176.15625 Z M 20.683594 176.15625 " fill-opacity="1" fill-rule="nonzero"/></svg>