<svg xmlns="http://www.w3.org/2000/svg" xmlns:xlink="http://www.w3.org/1999/xlink" width="500" zoomAndPan="magnify" viewBox="0 0 375 374.999991" height="500" preserveAspectRatio="xMidYMid meet" version="1.0"><path fill="#ffffff" d="M 68.984375 112.8125 C 68.144531 113.347656 67.382812 113.976562 66.699219 114.707031 C 66.019531 115.433594 65.441406 116.234375 64.960938 117.109375 C 64.484375 117.984375 64.121094 118.902344 63.878906 119.867188 C 63.632812 120.835938 63.511719 121.816406 63.515625 122.8125 L 63.515625 273.90625 C 63.523438 275.03125 63.605469 276.152344 63.769531 277.265625 C 63.933594 278.378906 64.175781 279.476562 64.496094 280.554688 C 64.8125 281.632812 65.207031 282.6875 65.671875 283.710938 C 66.136719 284.734375 66.675781 285.722656 67.28125 286.671875 C 67.882812 287.621094 68.554688 288.523438 69.285156 289.378906 C 70.015625 290.234375 70.804688 291.03125 71.652344 291.777344 C 72.496094 292.519531 73.386719 293.203125 74.328125 293.820312 C 75.269531 294.4375 76.246094 294.988281 77.265625 295.46875 L 170.390625 339.53125 C 173.074219 340.765625 175.855469 341.699219 178.742188 342.332031 C 181.628906 342.964844 184.546875 343.28125 187.5 343.28125 C 190.453125 343.28125 193.371094 342.964844 196.257812 342.332031 C 199.144531 341.699219 201.925781 340.765625 204.609375 339.53125 L 297.734375 295.46875 C 298.753906 294.988281 299.730469 294.4375 300.671875 293.820312 C 301.613281 293.203125 302.503906 292.519531 303.347656 291.777344 C 304.195312 291.03125 304.984375 290.234375 305.714844 289.378906 C 306.445312 288.523438 307.117188 287.621094 307.71875 286.671875 C 308.324219 285.722656 308.863281 284.734375 309.328125 283.710938 C 309.792969 282.6875 310.1875 281.632812 310.503906 280.554688 C 310.824219 279.476562 311.066406 278.378906 311.230469 277.265625 C 311.394531 276.152344 311.476562 275.03125 311.484375 273.90625 L 311.484375 122.8125 C 311.488281 121.808594 311.367188 120.816406 311.113281 119.84375 C 310.863281 118.871094 310.488281 117.945312 309.996094 117.066406 C 309.503906 116.191406 308.90625 115.390625 308.203125 114.671875 C 307.503906 113.949219 306.722656 113.332031 305.859375 112.8125 L 271.015625 94.84375 L 271.015625 79.21875 C 271.011719 76.285156 270.230469 73.578125 268.671875 71.09375 L 247.890625 37.34375 C 247.628906 36.917969 247.34375 36.507812 247.03125 36.117188 C 246.71875 35.726562 246.382812 35.355469 246.023438 35.007812 C 245.664062 34.660156 245.285156 34.335938 244.882812 34.039062 C 244.480469 33.738281 244.0625 33.46875 243.628906 33.222656 C 243.191406 32.976562 242.742188 32.761719 242.277344 32.574219 C 241.8125 32.386719 241.339844 32.230469 240.855469 32.101562 C 240.371094 31.976562 239.882812 31.878906 239.386719 31.816406 C 238.890625 31.753906 238.390625 31.71875 237.890625 31.71875 C 237.390625 31.71875 236.890625 31.753906 236.394531 31.816406 C 235.898438 31.878906 235.410156 31.976562 234.925781 32.101562 C 234.441406 32.230469 233.96875 32.386719 233.503906 32.574219 C 233.039062 32.761719 232.589844 32.976562 232.152344 33.222656 C 231.71875 33.46875 231.300781 33.738281 230.898438 34.039062 C 230.496094 34.335938 230.117188 34.660156 229.757812 35.007812 C 229.398438 35.355469 229.0625 35.726562 228.75 36.117188 C 228.4375 36.507812 228.152344 36.917969 227.890625 37.34375 L 207.8125 70.3125 L 197.5 53.59375 C 196.964844 52.753906 196.335938 51.992188 195.605469 51.308594 C 194.878906 50.628906 194.078125 50.050781 193.203125 49.570312 C 192.328125 49.09375 191.410156 48.730469 190.445312 48.488281 C 189.476562 48.242188 188.496094 48.121094 187.5 48.125 C 186.5 48.15625 185.519531 48.304688 184.558594 48.570312 C 183.59375 48.839844 182.679688 49.21875 181.808594 49.707031 C 180.9375 50.195312 180.136719 50.785156 179.410156 51.46875 C 178.679688 52.152344 178.042969 52.910156 177.5 53.75 L 167.34375 70.3125 L 146.875 37.34375 C 146.613281 36.917969 146.328125 36.507812 146.015625 36.117188 C 145.703125 35.726562 145.367188 35.355469 145.007812 35.007812 C 144.648438 34.660156 144.269531 34.335938 143.867188 34.039062 C 143.464844 33.738281 143.046875 33.46875 142.613281 33.222656 C 142.175781 32.976562 141.726562 32.761719 141.261719 32.574219 C 140.796875 32.386719 140.324219 32.230469 139.839844 32.101562 C 139.355469 31.976562 138.867188 31.878906 138.371094 31.816406 C 137.875 31.753906 137.375 31.71875 136.875 31.71875 C 136.375 31.71875 135.875 31.753906 135.378906 31.816406 C 134.882812 31.878906 134.394531 31.976562 133.910156 32.101562 C 133.425781 32.230469 132.953125 32.386719 132.488281 32.574219 C 132.023438 32.761719 131.574219 32.976562 131.136719 33.222656 C 130.703125 33.46875 130.285156 33.738281 129.882812 34.039062 C 129.480469 34.335938 129.101562 34.660156 128.742188 35.007812 C 128.382812 35.355469 128.046875 35.726562 127.734375 36.117188 C 127.421875 36.507812 127.136719 36.917969 126.875 37.34375 L 106.328125 71.09375 C 104.769531 73.578125 103.988281 76.285156 103.984375 79.21875 L 103.984375 94.84375 Z M 271.015625 112.65625 L 281.953125 118.125 L 271.015625 123.28125 Z M 232.890625 59.0625 L 242.890625 59.0625 L 250.703125 71.71875 L 225.078125 71.71875 Z M 255.390625 87.34375 L 255.390625 130.625 L 245.859375 135.15625 L 245.859375 87.34375 Z M 220.546875 87.34375 L 230.234375 87.34375 L 230.234375 142.5 L 220.546875 147.1875 Z M 131.953125 59.0625 L 141.953125 59.0625 L 149.765625 71.71875 L 124.140625 71.71875 Z M 154.453125 87.34375 L 154.453125 147.03125 L 144.921875 142.5 L 144.921875 87.34375 Z M 119.609375 87.34375 L 129.296875 87.34375 L 129.296875 135.15625 L 119.609375 130.625 Z M 103.984375 112.65625 L 103.984375 123.28125 L 93.046875 118.125 Z M 83.828125 281.25 C 83.128906 280.921875 82.488281 280.507812 81.910156 279.996094 C 81.328125 279.488281 80.832031 278.910156 80.417969 278.257812 C 80 277.609375 79.6875 276.914062 79.46875 276.171875 C 79.25 275.433594 79.140625 274.675781 79.140625 273.90625 L 79.140625 128.75 L 179.609375 176.25 L 179.609375 326.09375 Z M 179.609375 158.90625 L 170.078125 154.375 L 170.078125 103.75 L 179.609375 103.75 Z M 174.609375 88.125 L 182.578125 75.3125 L 192.265625 75.3125 L 200.234375 88.125 Z M 204.921875 103.75 L 204.921875 154.53125 L 195.234375 159.0625 L 195.234375 103.75 Z M 195.3125 326.25 L 195.3125 176.40625 L 295.9375 128.75 L 295.9375 273.90625 C 295.9375 274.6875 295.824219 275.453125 295.597656 276.203125 C 295.375 276.949219 295.046875 277.652344 294.617188 278.304688 C 294.183594 278.957031 293.671875 279.535156 293.070312 280.035156 C 292.472656 280.535156 291.8125 280.941406 291.09375 281.25 Z M 195.3125 326.25 " fill-opacity="1" fill-rule="nonzero"/></svg>