<svg xmlns="http://www.w3.org/2000/svg" xmlns:xlink="http://www.w3.org/1999/xlink" width="500" zoomAndPan="magnify" viewBox="0 0 375 374.999991" height="500" preserveAspectRatio="xMidYMid meet" version="1.0"><defs><g/></defs><g fill="#000000" fill-opacity="1"><g transform="translate(174.56718, 191.249987)"><g><path d="M 6.75 -6.578125 L 6.75 0 L 5.65625 0 L 5.65625 -0.96875 C 5.457031 -0.632812 5.171875 -0.375 4.796875 -0.1875 C 4.421875 0 4.007812 0.09375 3.5625 0.09375 C 3.050781 0.09375 2.59375 -0.0078125 2.1875 -0.21875 C 1.78125 -0.4375 1.457031 -0.753906 1.21875 -1.171875 C 0.976562 -1.597656 0.859375 -2.113281 0.859375 -2.71875 L 0.859375 -6.578125 L 1.9375 -6.578125 L 1.9375 -2.875 C 1.9375 -2.21875 2.097656 -1.71875 2.421875 -1.375 C 2.753906 -1.03125 3.207031 -0.859375 3.78125 -0.859375 C 4.363281 -0.859375 4.820312 -1.035156 5.15625 -1.390625 C 5.488281 -1.753906 5.65625 -2.28125 5.65625 -2.96875 L 5.65625 -6.578125 Z M 6.75 -6.578125 "/></g></g></g><g fill="#000000" fill-opacity="1"><g transform="translate(182.247195, 191.249987)"><g><path d="M 3.25 0.109375 C 2.75 0.109375 2.296875 0.0234375 1.890625 -0.140625 C 1.492188 -0.316406 1.175781 -0.554688 0.9375 -0.859375 C 0.707031 -1.171875 0.582031 -1.53125 0.5625 -1.9375 L 1.6875 -1.9375 C 1.71875 -1.601562 1.867188 -1.332031 2.140625 -1.125 C 2.421875 -0.914062 2.785156 -0.8125 3.234375 -0.8125 C 3.648438 -0.8125 3.976562 -0.90625 4.21875 -1.09375 C 4.457031 -1.28125 4.578125 -1.507812 4.578125 -1.78125 C 4.578125 -2.070312 4.445312 -2.285156 4.1875 -2.421875 C 3.9375 -2.566406 3.546875 -2.707031 3.015625 -2.84375 C 2.523438 -2.96875 2.125 -3.097656 1.8125 -3.234375 C 1.507812 -3.367188 1.25 -3.566406 1.03125 -3.828125 C 0.8125 -4.085938 0.703125 -4.425781 0.703125 -4.84375 C 0.703125 -5.1875 0.800781 -5.492188 1 -5.765625 C 1.195312 -6.046875 1.476562 -6.269531 1.84375 -6.4375 C 2.21875 -6.601562 2.640625 -6.6875 3.109375 -6.6875 C 3.835938 -6.6875 4.425781 -6.5 4.875 -6.125 C 5.320312 -5.757812 5.5625 -5.257812 5.59375 -4.625 L 4.5 -4.625 C 4.476562 -4.96875 4.335938 -5.242188 4.078125 -5.453125 C 3.828125 -5.660156 3.492188 -5.765625 3.078125 -5.765625 C 2.679688 -5.765625 2.363281 -5.675781 2.125 -5.5 C 1.894531 -5.332031 1.78125 -5.113281 1.78125 -4.84375 C 1.78125 -4.632812 1.847656 -4.457031 1.984375 -4.3125 C 2.128906 -4.175781 2.304688 -4.066406 2.515625 -3.984375 C 2.734375 -3.898438 3.03125 -3.804688 3.40625 -3.703125 C 3.875 -3.566406 4.253906 -3.4375 4.546875 -3.3125 C 4.847656 -3.1875 5.101562 -3 5.3125 -2.75 C 5.53125 -2.507812 5.644531 -2.1875 5.65625 -1.78125 C 5.65625 -1.425781 5.550781 -1.101562 5.34375 -0.8125 C 5.144531 -0.53125 4.863281 -0.304688 4.5 -0.140625 C 4.132812 0.0234375 3.71875 0.109375 3.25 0.109375 Z M 3.25 0.109375 "/></g></g></g><g fill="#000000" fill-opacity="1"><g transform="translate(188.51121, 191.249987)"><g><path d="M 6.921875 -3.546875 C 6.921875 -3.335938 6.910156 -3.113281 6.890625 -2.875 L 1.625 -2.875 C 1.664062 -2.226562 1.890625 -1.722656 2.296875 -1.359375 C 2.703125 -0.992188 3.191406 -0.8125 3.765625 -0.8125 C 4.234375 -0.8125 4.625 -0.921875 4.9375 -1.140625 C 5.257812 -1.359375 5.484375 -1.65625 5.609375 -2.03125 L 6.796875 -2.03125 C 6.617188 -1.394531 6.265625 -0.878906 5.734375 -0.484375 C 5.203125 -0.0859375 4.546875 0.109375 3.765625 0.109375 C 3.140625 0.109375 2.582031 -0.03125 2.09375 -0.3125 C 1.601562 -0.59375 1.21875 -0.988281 0.9375 -1.5 C 0.65625 -2.019531 0.515625 -2.617188 0.515625 -3.296875 C 0.515625 -3.972656 0.648438 -4.566406 0.921875 -5.078125 C 1.191406 -5.597656 1.570312 -5.992188 2.0625 -6.265625 C 2.5625 -6.546875 3.128906 -6.6875 3.765625 -6.6875 C 4.390625 -6.6875 4.941406 -6.550781 5.421875 -6.28125 C 5.898438 -6.007812 6.269531 -5.632812 6.53125 -5.15625 C 6.789062 -4.675781 6.921875 -4.140625 6.921875 -3.546875 Z M 5.796875 -3.765625 C 5.796875 -4.179688 5.703125 -4.539062 5.515625 -4.84375 C 5.335938 -5.144531 5.085938 -5.375 4.765625 -5.53125 C 4.453125 -5.6875 4.101562 -5.765625 3.71875 -5.765625 C 3.164062 -5.765625 2.695312 -5.585938 2.3125 -5.234375 C 1.925781 -4.878906 1.703125 -4.390625 1.640625 -3.765625 Z M 5.796875 -3.765625 "/></g></g></g><g fill="#000000" fill-opacity="1"><g transform="translate(195.95122, 191.249987)"><g><path d="M 2.015625 -5.515625 C 2.203125 -5.890625 2.472656 -6.179688 2.828125 -6.390625 C 3.191406 -6.597656 3.628906 -6.703125 4.140625 -6.703125 L 4.140625 -5.5625 L 3.859375 -5.5625 C 2.628906 -5.5625 2.015625 -4.898438 2.015625 -3.578125 L 2.015625 0 L 0.921875 0 L 0.921875 -6.578125 L 2.015625 -6.578125 Z M 2.015625 -5.515625 "/></g></g></g><path fill="#edded3" d="M 75.460938 387.304688 C 75.832031 405.511719 76.207031 423.714844 77.082031 444.519531 C 126.019531 449.679688 175.488281 449.773438 225.085938 441.917969 C 225.941406 425.066406 226.792969 408.210938 228.949219 389.3125 C 183.996094 362.234375 125.039062 360.109375 75.460938 387.300781 Z M 75.460938 387.304688 " fill-opacity="1" fill-rule="nonzero"/><path fill="#e3083d" d="M 241.203125 301.691406 C 238.796875 334.386719 236.390625 367.078125 233.984375 399.773438 C 220.777344 408.375 204.746094 409.910156 189.152344 410.785156 C 167.097656 412.015625 144.980469 412.175781 122.914062 411.253906 C 104.089844 410.472656 84.871094 408.796875 67.683594 401.085938 C 67.8125 384.972656 68.449219 370.621094 69.082031 356.269531 C 60.992188 362.8125 51.832031 367.371094 41.921875 369.140625 C 32.015625 370.90625 21.089844 369.535156 13.238281 363.238281 C 6.585938 357.902344 2.828125 349.582031 1.511719 341.15625 C 0.195312 332.730469 1.089844 324.117188 2.347656 315.679688 C 7.210938 283.015625 17.421875 251.257812 31.148438 221.222656 C 35.796875 211.046875 41.042969 200.800781 49.382812 193.335938 C 66.683594 177.84375 93.160156 177.652344 112.390625 164.632812 C 114.765625 154.558594 122.460938 145.945312 131.941406 143.070312 C 145.53125 143.0625 159.042969 141.941406 172.089844 145.433594 C 182.117188 145.109375 192 154.792969 194.5625 165.398438 C 214.417969 166.824219 233.738281 174.859375 248.753906 187.925781 C 255.328125 193.652344 261.058594 200.265625 266.765625 206.859375 C 278.914062 220.898438 291.066406 234.933594 302.722656 248.835938 C 303.542969 252.9375 304.367188 257.042969 305.6875 262.191406 C 315.886719 268.011719 326.082031 273.835938 336.246094 278.214844 C 334.363281 288.21875 332.429688 298.363281 327.972656 307.511719 C 323.511719 316.664062 316.132812 324.863281 306.457031 328.023438 C 295.621094 331.5625 283.648438 328.324219 273.558594 323.023438 C 263.46875 317.71875 254.53125 310.433594 241.203125 301.691406 Z M 241.203125 301.691406 " fill-opacity="1" fill-rule="nonzero"/><path fill="#6b2537" d="M 69.695312 313.996094 C 69.601562 313.996094 69.507812 313.984375 69.417969 313.957031 C 68.945312 313.832031 68.621094 313.398438 68.628906 312.910156 C 68.742188 306.589844 69.199219 294.953125 69.683594 282.632812 C 70.238281 268.480469 70.816406 253.851562 70.902344 246.390625 C 70.90625 245.804688 71.382812 245.335938 71.964844 245.335938 C 71.96875 245.335938 71.972656 245.335938 71.976562 245.335938 C 72.566406 245.34375 73.039062 245.824219 73.03125 246.414062 C 72.949219 253.902344 72.371094 268.550781 71.816406 282.714844 C 71.457031 291.757812 71.117188 300.433594 70.917969 306.898438 C 75.015625 294.460938 81.195312 268.257812 81.269531 267.941406 C 81.402344 267.367188 81.980469 267.011719 82.550781 267.148438 C 83.125 267.285156 83.480469 267.859375 83.34375 268.429688 C 82.976562 269.996094 74.289062 306.828125 70.628906 313.445312 C 70.4375 313.789062 70.074219 313.996094 69.695312 313.996094 Z M 69.695312 313.996094 " fill-opacity="1" fill-rule="nonzero"/><path fill="#6b2537" d="M 196.628906 21.6875 C 205.34375 29.878906 208.421875 42.714844 207.46875 54.640625 C 206.519531 66.566406 202.046875 77.886719 197.695312 89.265625 C 170.972656 98.023438 141.128906 96.882812 114.203125 87.289062 C 110.570312 78.320312 106.910156 69.261719 105.242188 59.726562 C 103.578125 50.195312 104.035156 40.011719 108.351562 31.351562 C 112.054688 23.914062 118.347656 18.0625 125.144531 13.285156 C 133.535156 7.394531 143.085938 2.835938 153.265625 1.640625 C 163.449219 0.445312 174.308594 2.90625 181.289062 10.320312 C 181.324219 6.882812 180.367188 3.441406 178.667969 0 C 183.648438 3.382812 187.21875 8.785156 188.523438 14.949219 C 189.386719 12.664062 190.246094 10.378906 191.734375 7.921875 C 193.390625 12.183594 192.648438 17.949219 196.628906 21.691406 Z M 196.628906 21.6875 " fill-opacity="1" fill-rule="nonzero"/><path fill="#ffad95" d="M 199.953125 76.925781 C 201.660156 75.453125 203.792969 74.386719 206.042969 74.277344 C 208.296875 74.171875 210.652344 75.125 211.925781 76.984375 C 213.332031 79.046875 213.226562 81.785156 212.652344 84.210938 C 212.023438 86.882812 210.859375 89.476562 208.953125 91.453125 C 207.050781 93.425781 204.34375 94.71875 201.605469 94.554688 C 199.777344 105.164062 196.824219 114.253906 190.859375 121.324219 C 183.996094 129.460938 173.421875 134.199219 162.777344 134.421875 C 152.132812 134.644531 141.554688 130.480469 133.554688 123.457031 C 125.554688 116.433594 120.113281 106.671875 117.332031 96.984375 C 113.996094 95.78125 110.734375 94.199219 108.148438 91.777344 C 105.558594 89.355469 103.699219 86.003906 103.652344 82.457031 C 103.609375 78.914062 105.640625 75.269531 108.9375 73.96875 C 112.234375 72.664062 116.558594 74.265625 116.800781 79.078125 C 115.78125 70.699219 118.34375 62.171875 122.625 54.894531 C 126.902344 47.617188 132.820312 41.449219 138.96875 35.664062 C 141.316406 33.449219 144.15625 31.128906 147.359375 31.519531 C 150.132812 31.859375 152.269531 34.152344 154.9375 34.972656 C 159.527344 36.382812 164.125 33.214844 168.777344 32.019531 C 175.378906 30.328125 182.601562 32.84375 187.597656 37.476562 C 192.59375 42.105469 195.558594 48.59375 197.074219 55.234375 C 198.585938 61.878906 198.757812 68.742188 199.957031 76.925781 Z M 199.953125 76.925781 " fill-opacity="1" fill-rule="nonzero"/><path fill="#6b2537" d="M 162.039062 97.496094 C 160.859375 97.496094 159.675781 97.183594 158.667969 96.558594 C 158.167969 96.246094 158.011719 95.589844 158.320312 95.089844 C 158.628906 94.589844 159.285156 94.4375 159.785156 94.746094 C 161.035156 95.515625 162.683594 95.578125 163.984375 94.90625 C 165.285156 94.234375 166.191406 92.851562 166.28125 91.390625 C 166.375 89.945312 165.753906 88.503906 165.09375 86.984375 C 165.007812 86.78125 164.921875 86.578125 164.832031 86.378906 C 163.066406 82.203125 162.042969 77.792969 161.796875 73.265625 C 161.765625 72.675781 162.214844 72.171875 162.804688 72.140625 C 163.386719 72.105469 163.890625 72.558594 163.925781 73.148438 C 164.15625 77.425781 165.121094 81.597656 166.796875 85.546875 C 166.878906 85.742188 166.964844 85.9375 167.050781 86.136719 C 167.777344 87.824219 168.535156 89.566406 168.40625 91.523438 C 168.269531 93.71875 166.914062 95.789062 164.960938 96.800781 C 164.058594 97.265625 163.050781 97.496094 162.035156 97.496094 Z M 162.039062 97.496094 " fill-opacity="1" fill-rule="nonzero"/><path fill="#6b2537" d="M 202.304688 90.019531 C 201.992188 90.019531 201.679688 89.882812 201.46875 89.613281 C 201.105469 89.152344 201.183594 88.484375 201.644531 88.117188 C 202.371094 87.539062 203.191406 86.855469 203.675781 86.015625 C 204.113281 85.253906 204.207031 84.40625 203.921875 83.804688 C 203.671875 83.28125 202.976562 82.949219 202.546875 83.148438 C 202.105469 83.351562 201.578125 83.226562 201.273438 82.847656 C 200.964844 82.464844 200.957031 81.925781 201.253906 81.535156 L 204.199219 77.65625 C 204.558594 77.1875 205.226562 77.097656 205.695312 77.453125 C 206.164062 77.8125 206.253906 78.480469 205.898438 78.949219 L 204.15625 81.242188 C 204.867188 81.558594 205.484375 82.132812 205.84375 82.890625 C 206.4375 84.132812 206.316406 85.699219 205.519531 87.078125 C 204.847656 88.246094 203.851562 89.089844 202.96875 89.789062 C 202.769531 89.945312 202.539062 90.019531 202.304688 90.019531 Z M 202.304688 90.019531 " fill-opacity="1" fill-rule="nonzero"/><path fill="#6b2537" d="M 114.714844 90.550781 C 114.652344 90.550781 114.589844 90.542969 114.523438 90.53125 C 112.703125 90.203125 111.183594 88.636719 110.910156 86.808594 C 110.703125 85.414062 111.230469 83.949219 112.226562 82.960938 L 110.132812 80.453125 C 109.753906 80.003906 109.816406 79.328125 110.269531 78.953125 C 110.71875 78.574219 111.390625 78.636719 111.769531 79.085938 L 114.578125 82.457031 C 114.785156 82.703125 114.871094 83.03125 114.804688 83.347656 C 114.742188 83.664062 114.539062 83.933594 114.25 84.085938 C 113.40625 84.519531 112.878906 85.554688 113.019531 86.496094 C 113.160156 87.433594 113.972656 88.265625 114.90625 88.4375 C 115.484375 88.539062 115.867188 89.09375 115.761719 89.675781 C 115.671875 90.191406 115.21875 90.550781 114.714844 90.550781 Z M 114.714844 90.550781 " fill-opacity="1" fill-rule="nonzero"/><path fill="#ffad95" d="M 131.640625 113.015625 C 130.335938 126.867188 129.027344 140.722656 127.03125 153.472656 C 133.644531 167.722656 144.582031 184.238281 157.753906 192.90625 C 167.683594 182.484375 174.199219 165.785156 177.921875 152 C 177.070312 142.925781 176.621094 133.8125 176.332031 123.457031 C 172.765625 116.054688 166.042969 110.234375 158.207031 107.761719 C 150.371094 105.289062 141.527344 106.203125 131.644531 113.019531 Z M 131.640625 113.015625 " fill-opacity="1" fill-rule="nonzero"/><path fill="#ffad95" d="M 352.316406 184.726562 C 345.460938 215.292969 338.609375 245.863281 331.753906 276.433594 C 314.152344 274.164062 300.125 265.601562 291.496094 253.265625 C 301.917969 228.191406 313.496094 203.597656 325.660156 180.015625 C 322.144531 163.320312 318.628906 146.625 315.113281 129.929688 C 314.734375 128.128906 314.386719 126.117188 315.355469 124.550781 C 316.613281 122.523438 319.652344 122.253906 321.746094 123.40625 C 323.839844 124.554688 325.160156 126.710938 326.226562 128.851562 C 327.292969 130.988281 328.230469 133.25 329.828125 135.113281 C 336.117188 121.660156 343.035156 108.507812 350.550781 95.703125 C 351.351562 94.332031 352.195312 92.929688 353.480469 92.003906 C 354.765625 91.074219 356.617188 90.734375 357.929688 91.625 C 359.953125 92.996094 359.519531 96.046875 358.847656 98.402344 C 357.136719 104.417969 355.425781 110.433594 353.679688 116.46875 C 357.890625 116.539062 361.816406 119.875 363.265625 123.816406 C 366.757812 124.660156 369.453125 128.078125 368.652344 130.816406 C 372.246094 132.0625 374.519531 135.910156 374.671875 139.710938 C 374.824219 143.511719 373.167969 147.199219 369.375 149.207031 C 369.859375 162.261719 363.558594 175.382812 352.316406 184.726562 Z M 352.316406 184.726562 " fill-opacity="1" fill-rule="nonzero"/><path fill="#6b2537" d="M 343.855469 168.019531 C 343.597656 168.019531 343.34375 167.929688 343.140625 167.746094 C 342.703125 167.347656 342.671875 166.675781 343.066406 166.238281 C 345.636719 163.402344 347.03125 157.691406 344.027344 151.855469 C 341.433594 146.820312 336.59375 143.285156 332.664062 140.765625 C 332.167969 140.449219 332.023438 139.789062 332.34375 139.292969 C 332.660156 138.796875 333.316406 138.652344 333.8125 138.972656 C 337.96875 141.632812 343.097656 145.394531 345.921875 150.882812 C 348.894531 156.65625 348.371094 163.558594 344.648438 167.667969 C 344.4375 167.902344 344.148438 168.019531 343.859375 168.019531 Z M 343.855469 168.019531 " fill-opacity="1" fill-rule="nonzero"/><path fill="#6b2537" d="M 354.289062 141.59375 C 354.257812 141.59375 354.222656 141.59375 354.191406 141.589844 C 351.203125 141.324219 348.4375 139.035156 347.3125 135.894531 C 346.144531 132.628906 346.832031 129.320312 347.609375 127.121094 C 348.566406 124.40625 350.105469 122 351.59375 119.671875 C 351.910156 119.175781 352.570312 119.03125 353.066406 119.347656 C 353.5625 119.664062 353.707031 120.324219 353.390625 120.820312 C 351.96875 123.046875 350.496094 125.351562 349.621094 127.832031 C 348.957031 129.707031 348.367188 132.503906 349.320312 135.175781 C 350.15625 137.515625 352.238281 139.28125 354.382812 139.46875 C 354.96875 139.523438 355.402344 140.039062 355.347656 140.625 C 355.300781 141.179688 354.835938 141.597656 354.289062 141.597656 Z M 354.289062 141.59375 " fill-opacity="1" fill-rule="nonzero"/><path fill="#6b2537" d="M 360.320312 147.742188 C 357.960938 147.742188 355.5625 146.222656 354.4375 143.84375 C 353.347656 141.535156 353.386719 138.65625 354.554688 135.738281 C 355.410156 133.585938 356.730469 131.699219 358.003906 129.871094 C 358.175781 129.628906 358.34375 129.386719 358.511719 129.144531 C 359.769531 127.328125 361.160156 125.191406 361.714844 122.886719 C 361.851562 122.316406 362.425781 121.964844 363 122.101562 C 363.570312 122.238281 363.921875 122.8125 363.785156 123.382812 C 363.148438 126.046875 361.632812 128.382812 360.265625 130.359375 C 360.097656 130.601562 359.921875 130.847656 359.753906 131.09375 C 358.492188 132.898438 357.300781 134.605469 356.53125 136.527344 C 355.601562 138.855469 355.542969 141.191406 356.367188 142.933594 C 357.277344 144.859375 359.449219 146.003906 361.207031 145.484375 C 361.769531 145.316406 362.363281 145.636719 362.53125 146.203125 C 362.699219 146.765625 362.375 147.359375 361.8125 147.527344 C 361.328125 147.671875 360.824219 147.742188 360.320312 147.742188 Z M 360.320312 147.742188 " fill-opacity="1" fill-rule="nonzero"/><path fill="#6b2537" d="M 366.886719 150.855469 C 365.769531 150.855469 364.652344 150.570312 363.691406 150.015625 C 361.996094 149.039062 360.796875 147.230469 360.550781 145.292969 C 360.296875 143.246094 361.042969 141.316406 361.765625 139.671875 C 363.445312 135.832031 365.523438 132.148438 367.933594 128.722656 C 368.273438 128.242188 368.9375 128.125 369.417969 128.464844 C 369.898438 128.804688 370.015625 129.46875 369.675781 129.949219 C 367.347656 133.257812 365.339844 136.820312 363.714844 140.527344 C 363.109375 141.914062 362.476562 143.519531 362.664062 145.027344 C 362.824219 146.316406 363.625 147.519531 364.753906 148.171875 C 365.878906 148.820312 367.324219 148.910156 368.519531 148.402344 C 369.0625 148.171875 369.6875 148.425781 369.917969 148.964844 C 370.144531 149.507812 369.894531 150.132812 369.351562 150.363281 C 368.578125 150.691406 367.730469 150.855469 366.886719 150.855469 Z M 366.886719 150.855469 " fill-opacity="1" fill-rule="nonzero"/><path fill="#ffad95" d="M 138.960938 324.75 C 110.53125 349.023438 74.671875 364.476562 36.265625 368.351562 C 29.140625 352.972656 30.292969 334.046875 37.898438 319.425781 C 65.335938 309.828125 93.945312 303.605469 122.5625 300.671875 C 127.363281 287.011719 134.875 274.308594 144.53125 263.519531 C 145.992188 261.882812 147.605469 260.226562 149.710938 259.605469 C 151.816406 258.984375 154.507812 259.820312 155.195312 261.902344 C 155.722656 263.511719 154.945312 265.226562 154.175781 266.730469 C 151.992188 271.003906 149.738281 275.238281 146.3125 279.992188 C 164.707031 273.664062 183.101562 267.335938 201.496094 261.003906 C 202.738281 260.578125 204.023438 260.144531 205.332031 260.246094 C 206.636719 260.347656 207.992188 261.125 208.335938 262.390625 C 208.882812 264.367188 206.902344 266.054688 205.152344 267.117188 C 198.863281 270.949219 192.308594 274.347656 184.796875 277.851562 C 186.816406 279.855469 187.546875 283.058594 187.308594 285.878906 C 190.3125 288.179688 191.027344 292.949219 189.042969 295.382812 C 190.453125 297.726562 190.015625 300.832031 188.613281 303.183594 C 187.210938 305.53125 184.988281 307.265625 182.765625 308.855469 C 169.691406 318.203125 154.125 324.652344 138.960938 324.753906 Z M 138.960938 324.75 " fill-opacity="1" fill-rule="nonzero"/><path fill="#6b2537" d="M 168.480469 285.453125 C 168.066406 285.453125 167.671875 285.210938 167.5 284.804688 C 167.269531 284.265625 167.519531 283.640625 168.0625 283.40625 L 184.398438 276.445312 C 184.941406 276.214844 185.566406 276.464844 185.800781 277.007812 C 186.03125 277.546875 185.777344 278.171875 185.238281 278.40625 L 168.898438 285.367188 C 168.761719 285.425781 168.621094 285.453125 168.480469 285.453125 Z M 168.480469 285.453125 " fill-opacity="1" fill-rule="nonzero"/><path fill="#6b2537" d="M 174.03125 293.179688 C 173.644531 293.179688 173.269531 292.96875 173.082031 292.601562 C 172.8125 292.078125 173.019531 291.433594 173.542969 291.167969 L 186.246094 284.660156 C 186.769531 284.390625 187.414062 284.601562 187.679688 285.125 C 187.949219 285.648438 187.742188 286.292969 187.21875 286.558594 L 174.515625 293.066406 C 174.359375 293.144531 174.195312 293.183594 174.03125 293.183594 Z M 174.03125 293.179688 " fill-opacity="1" fill-rule="nonzero"/><path fill="#6b2537" d="M 173.9375 303.21875 C 173.546875 303.21875 173.175781 303.003906 172.988281 302.636719 C 172.71875 302.117188 172.921875 301.476562 173.441406 301.207031 L 188.039062 293.585938 C 188.5625 293.3125 189.203125 293.515625 189.476562 294.039062 C 189.75 294.558594 189.546875 295.203125 189.027344 295.476562 L 175.027344 302.785156 C 174.984375 302.8125 174.941406 302.835938 174.898438 302.859375 L 174.414062 303.105469 C 174.257812 303.183594 174.09375 303.21875 173.933594 303.21875 Z M 173.9375 303.21875 " fill-opacity="1" fill-rule="nonzero"/><path fill="#6b2537" d="M 147.304688 191.96875 C 147.148438 191.96875 146.988281 191.933594 146.839844 191.859375 C 141.070312 189.070312 135.402344 185.917969 129.988281 182.476562 C 125.605469 185.085938 121.160156 187.917969 116.855469 190.664062 C 116.589844 190.832031 116.261719 190.875 115.960938 190.78125 C 115.660156 190.6875 115.417969 190.464844 115.296875 190.175781 C 112.945312 184.511719 110.957031 178.71875 109.035156 173.121094 C 108.84375 172.566406 109.140625 171.957031 109.699219 171.765625 C 110.253906 171.574219 110.859375 171.871094 111.054688 172.429688 C 112.832031 177.609375 114.664062 182.953125 116.78125 188.183594 C 120.953125 185.527344 125.238281 182.808594 129.46875 180.308594 C 129.816406 180.105469 130.246094 180.113281 130.585938 180.328125 C 136.097656 183.859375 141.878906 187.09375 147.769531 189.941406 C 148.300781 190.199219 148.523438 190.835938 148.265625 191.367188 C 148.082031 191.746094 147.703125 191.96875 147.304688 191.96875 Z M 147.304688 191.96875 " fill-opacity="1" fill-rule="nonzero"/><path fill="#6b2537" d="M 164.058594 192.359375 C 163.703125 192.359375 163.351562 192.179688 163.148438 191.851562 C 162.84375 191.347656 163 190.691406 163.503906 190.386719 L 175.867188 182.824219 C 176.113281 182.671875 176.414062 182.628906 176.695312 182.703125 C 180.144531 183.621094 183.269531 184.675781 186.285156 185.710938 C 189.128906 180.851562 191.152344 175.882812 192.800781 169.738281 C 192.953125 169.171875 193.539062 168.832031 194.105469 168.984375 C 194.675781 169.136719 195.011719 169.722656 194.859375 170.289062 C 193.074219 176.949219 190.855469 182.273438 187.671875 187.554688 C 187.410156 187.984375 186.886719 188.175781 186.410156 188.011719 C 183.304688 186.941406 180.101562 185.835938 176.589844 184.882812 L 164.617188 192.203125 C 164.441406 192.308594 164.25 192.359375 164.0625 192.359375 Z M 164.058594 192.359375 " fill-opacity="1" fill-rule="nonzero"/><path fill="#6b2537" d="M 16.972656 314.003906 C 16.578125 314.003906 16.199219 313.785156 16.015625 313.40625 C 15.757812 312.878906 15.976562 312.238281 16.503906 311.980469 C 27.042969 306.832031 39.214844 305.066406 50.78125 307.011719 C 51.359375 307.105469 51.753906 307.65625 51.652344 308.238281 C 51.558594 308.816406 51.007812 309.210938 50.425781 309.109375 C 39.296875 307.242188 27.582031 308.941406 17.441406 313.894531 C 17.289062 313.96875 17.128906 314.003906 16.972656 314.003906 Z M 16.972656 314.003906 " fill-opacity="1" fill-rule="nonzero"/><path fill="#6b2537" d="M 240.15625 290.367188 C 240.15625 290.367188 240.140625 290.367188 240.128906 290.367188 C 239.539062 290.351562 239.074219 289.863281 239.089844 289.273438 C 239.554688 271.085938 240.878906 252.710938 243.03125 234.648438 C 243.101562 234.066406 243.628906 233.648438 244.214844 233.71875 C 244.800781 233.789062 245.214844 234.316406 245.144531 234.902344 C 243.003906 252.898438 241.679688 271.207031 241.21875 289.328125 C 241.203125 289.90625 240.730469 290.367188 240.15625 290.367188 Z M 240.15625 290.367188 " fill-opacity="1" fill-rule="nonzero"/><path fill="#6b2537" d="M 267.511719 287.839844 C 267.324219 287.839844 267.140625 287.792969 266.96875 287.695312 C 266.460938 287.394531 266.292969 286.742188 266.589844 286.234375 L 285.191406 254.652344 C 285.488281 254.144531 286.144531 253.976562 286.648438 254.277344 C 287.15625 254.574219 287.328125 255.226562 287.027344 255.734375 L 268.429688 287.316406 C 268.230469 287.652344 267.875 287.839844 267.511719 287.839844 Z M 267.511719 287.839844 " fill-opacity="1" fill-rule="nonzero"/><path fill="#6b2537" d="M 157.769531 248.359375 C 157.183594 248.359375 156.707031 247.882812 156.707031 247.292969 L 156.757812 201.757812 C 156.757812 201.167969 157.238281 200.695312 157.824219 200.695312 C 158.414062 200.695312 158.890625 201.171875 158.886719 201.761719 L 158.835938 247.296875 C 158.835938 247.886719 158.359375 248.359375 157.769531 248.359375 Z M 157.769531 248.359375 " fill-opacity="1" fill-rule="nonzero"/><path fill="#6b2537" d="M 169.703125 60.316406 C 169.625 63.085938 174.316406 63.023438 180.09375 63.183594 C 185.871094 63.34375 190.550781 63.667969 190.628906 60.898438 C 190.703125 58.125 186.105469 54.9375 180.324219 54.777344 C 174.546875 54.617188 169.777344 57.546875 169.699219 60.316406 Z M 169.703125 60.316406 " fill-opacity="1" fill-rule="nonzero"/><path fill="#6b2537" d="M 179.542969 69.351562 C 179.855469 69.355469 180.167969 69.394531 180.476562 69.472656 C 180.785156 69.550781 181.082031 69.664062 181.375 69.816406 C 181.664062 69.964844 181.9375 70.148438 182.199219 70.367188 C 182.457031 70.582031 182.699219 70.828125 182.917969 71.105469 C 183.140625 71.378906 183.335938 71.679688 183.507812 72 C 183.679688 72.324219 183.824219 72.664062 183.941406 73.023438 C 184.0625 73.382812 184.148438 73.75 184.207031 74.128906 C 184.265625 74.507812 184.292969 74.894531 184.289062 75.28125 C 184.285156 75.664062 184.253906 76.046875 184.1875 76.425781 C 184.121094 76.804688 184.027344 77.171875 183.90625 77.53125 C 183.78125 77.886719 183.632812 78.222656 183.453125 78.542969 C 183.277344 78.863281 183.074219 79.160156 182.847656 79.429688 C 182.625 79.703125 182.378906 79.945312 182.117188 80.15625 C 181.851562 80.371094 181.574219 80.546875 181.28125 80.695312 C 180.992188 80.839844 180.6875 80.949219 180.378906 81.023438 C 180.070312 81.09375 179.757812 81.128906 179.441406 81.125 C 179.128906 81.125 178.816406 81.082031 178.507812 81.007812 C 178.199219 80.929688 177.902344 80.8125 177.609375 80.664062 C 177.320312 80.511719 177.046875 80.328125 176.785156 80.113281 C 176.527344 79.894531 176.285156 79.648438 176.066406 79.375 C 175.84375 79.097656 175.648438 78.800781 175.476562 78.476562 C 175.304688 78.152344 175.160156 77.8125 175.042969 77.457031 C 174.925781 77.097656 174.835938 76.726562 174.777344 76.347656 C 174.71875 75.96875 174.691406 75.585938 174.695312 75.199219 C 174.699219 74.8125 174.734375 74.429688 174.796875 74.050781 C 174.863281 73.671875 174.957031 73.304688 175.078125 72.949219 C 175.203125 72.59375 175.355469 72.253906 175.53125 71.933594 C 175.707031 71.613281 175.910156 71.320312 176.136719 71.046875 C 176.359375 70.777344 176.605469 70.535156 176.867188 70.320312 C 177.132812 70.109375 177.410156 69.929688 177.703125 69.785156 C 177.996094 69.636719 178.296875 69.53125 178.605469 69.457031 C 178.914062 69.382812 179.226562 69.347656 179.542969 69.351562 Z M 179.542969 69.351562 " fill-opacity="1" fill-rule="nonzero"/><path fill="#6b2537" d="M 152.679688 60.441406 C 152.84375 63.207031 148.15625 63.292969 142.386719 63.640625 C 136.617188 63.984375 131.949219 64.460938 131.785156 61.691406 C 131.621094 58.925781 136.113281 55.59375 141.882812 55.246094 C 147.652344 54.898438 152.515625 57.675781 152.679688 60.441406 Z M 152.679688 60.441406 " fill-opacity="1" fill-rule="nonzero"/><path fill="#6b2537" d="M 148.984375 75.160156 C 148.984375 75.546875 148.957031 75.929688 148.894531 76.308594 C 148.835938 76.6875 148.746094 77.054688 148.628906 77.414062 C 148.507812 77.773438 148.363281 78.113281 148.191406 78.433594 C 148.015625 78.757812 147.820312 79.054688 147.597656 79.328125 C 147.375 79.605469 147.136719 79.847656 146.875 80.066406 C 146.613281 80.28125 146.335938 80.464844 146.046875 80.613281 C 145.757812 80.761719 145.457031 80.875 145.148438 80.953125 C 144.839844 81.027344 144.527344 81.066406 144.214844 81.070312 C 143.898438 81.070312 143.585938 81.035156 143.277344 80.960938 C 142.96875 80.886719 142.667969 80.777344 142.375 80.628906 C 142.082031 80.484375 141.808594 80.304688 141.542969 80.089844 C 141.28125 79.875 141.039062 79.632812 140.8125 79.359375 C 140.589844 79.089844 140.390625 78.792969 140.210938 78.472656 C 140.035156 78.152344 139.886719 77.8125 139.765625 77.457031 C 139.640625 77.097656 139.550781 76.730469 139.484375 76.351562 C 139.421875 75.972656 139.390625 75.589844 139.390625 75.203125 C 139.386719 74.816406 139.414062 74.433594 139.476562 74.054688 C 139.535156 73.675781 139.625 73.308594 139.742188 72.949219 C 139.863281 72.589844 140.007812 72.25 140.183594 71.929688 C 140.355469 71.605469 140.550781 71.308594 140.773438 71.035156 C 140.996094 70.761719 141.238281 70.515625 141.496094 70.296875 C 141.757812 70.082031 142.035156 69.898438 142.324219 69.75 C 142.613281 69.601562 142.914062 69.488281 143.222656 69.410156 C 143.53125 69.335938 143.84375 69.296875 144.15625 69.292969 C 144.472656 69.292969 144.785156 69.328125 145.09375 69.402344 C 145.402344 69.476562 145.703125 69.585938 145.996094 69.734375 C 146.289062 69.878906 146.566406 70.058594 146.828125 70.273438 C 147.089844 70.488281 147.335938 70.730469 147.558594 71.003906 C 147.78125 71.273438 147.984375 71.570312 148.160156 71.890625 C 148.335938 72.210938 148.484375 72.550781 148.605469 72.90625 C 148.730469 73.265625 148.820312 73.632812 148.886719 74.011719 C 148.949219 74.390625 148.980469 74.773438 148.984375 75.160156 Z M 148.984375 75.160156 " fill-opacity="1" fill-rule="nonzero"/><path fill="#6b2537" d="M 160.410156 116.910156 C 159.363281 116.910156 158.296875 116.792969 157.21875 116.539062 C 152.847656 115.511719 149.441406 112.59375 147.363281 108.101562 C 145.828125 104.773438 145.5625 101.765625 145.550781 101.640625 C 145.515625 101.222656 145.730469 100.824219 146.09375 100.621094 C 146.460938 100.417969 146.910156 100.445312 147.246094 100.695312 C 151.269531 103.667969 166.929688 103.605469 173.0625 101.882812 C 174.777344 101.398438 175.601562 102.101562 175.9375 102.566406 C 177.214844 104.320312 175.425781 107.410156 174.597656 108.65625 C 171.683594 113.042969 166.394531 116.910156 160.410156 116.910156 Z M 148.027344 103.476562 C 148.273438 104.519531 148.675781 105.871094 149.324219 107.265625 C 151.144531 111.160156 153.960938 113.582031 157.707031 114.460938 C 161.742188 115.410156 167.675781 114.292969 172.234375 108.300781 C 174 105.976562 174.359375 104.265625 174.226562 103.851562 C 174.15625 103.84375 173.972656 103.835938 173.636719 103.929688 C 168.214844 105.453125 154.464844 105.921875 148.027344 103.472656 Z M 148.027344 103.476562 " fill-opacity="1" fill-rule="nonzero"/><path fill="#6b2537" d="M 161.972656 135.492188 C 151.582031 135.492188 141.015625 131.425781 132.851562 124.257812 C 132.40625 123.871094 132.363281 123.195312 132.753906 122.753906 C 133.140625 122.3125 133.816406 122.269531 134.257812 122.65625 C 142.242188 129.667969 152.625 133.570312 162.753906 133.355469 C 165.601562 133.292969 168.46875 132.902344 171.269531 132.1875 C 171.839844 132.039062 172.421875 132.382812 172.566406 132.957031 C 172.710938 133.523438 172.367188 134.105469 171.796875 134.25 C 168.839844 135.007812 165.808594 135.421875 162.796875 135.484375 C 162.523438 135.492188 162.246094 135.492188 161.972656 135.492188 Z M 161.972656 135.492188 " fill-opacity="1" fill-rule="nonzero"/></svg>